<?xml version="1.0"?>
<svg width="100" height="100" xmlns="http://www.w3.org/2000/svg" xmlns:svg="http://www.w3.org/2000/svg">
 <g class="layer">
  <title>Layer 1</title>
  <path d="m44,39c0,2.76 -2.36,5 -5.28,5l-27.44,0c-2.91,0 -5.28,-2.24 -5.28,-5l0,-26c0,-2.76 2.36,-5 5.28,-5l27.44,0c2.91,0 5.28,2.24 5.28,5l0,26z" fill="#0078d4" id="svg_1"/>
  <path d="m30,37l0,-10.1c0,-1.69 -0.82,-2.7 -2.19,-2.7c-0.82,0 -1.42,0.46 -1.78,1.37c-0.02,0.06 -0.04,0.32 -0.03,1.11l0,10.32l-7,0l0,-19l7,0l0,1.06c1.02,-0.7 2.27,-1.06 3.74,-1.06c4.54,0 7.26,3.09 7.26,8.27l0,10.73l-7,0zm-19,0l0,-19l3.46,0c-2.01,0 -3.46,-1.47 -3.46,-3.5c0,-2.03 1.48,-3.5 3.51,-3.5c2.02,0 3.45,1.43 3.49,3.48c0,2.04 -1.48,3.52 -3.52,3.52l3.52,0l0,19l-7,0z" id="svg_2" opacity="0.05"/>
  <path d="m30.5,36.5l0,-9.6c0,-1.97 -1.03,-3.2 -2.69,-3.2c-1.3,0 -1.94,0.91 -2.24,1.68c-0.09,0.2 -0.08,0.99 -0.07,1.33l0,9.79l-6,0l0,-18l6,0l0,1.64c0.8,-0.83 2.07,-1.64 4.24,-1.64c4.23,0 6.76,2.91 6.76,7.77l0,10.23l-6,0zm-19,0l0,-18l6,0l0,18l-6,0zm2.96,-19c-1.72,0 -2.96,-1.26 -2.96,-3c0,-1.74 1.27,-3 3.01,-3c1.73,0 2.95,1.23 2.99,2.99c0,1.75 -1.27,3.01 -3.02,3.01l-0.02,0z" id="svg_3" opacity="0.07"/>
  <path d="m12,19.29l5.21,0l0,17.71l-5.21,0l0,-17.71zm2.58,-2.08l-0.02,0c-1.56,0 -2.56,-1.16 -2.56,-2.6c0,-1.48 1.03,-2.6 2.61,-2.6c1.59,0 2.56,1.12 2.59,2.6c0,1.45 -1,2.6 -2.63,2.6zm22.42,19.79l-5.21,0l0,-9.48c0,-2.29 -1.28,-3.85 -3.32,-3.85c-1.56,0 -2.41,1.05 -2.82,2.07c-0.15,0.36 -0.1,1.37 -0.1,1.89l0,9.37l-5.21,0l0,-17.71l5.21,0l0,2.73c0.75,-1.17 1.93,-2.73 4.94,-2.73c3.73,0 6.52,2.34 6.52,7.57l0,10.14l0,0z" fill="#fff" id="svg_4"/>
 </g>
</svg>
