<?xml version="1.0"?>
<svg width="200" height="200" xmlns="http://www.w3.org/2000/svg" xmlns:svg="http://www.w3.org/2000/svg">
 <title>Telegram</title>
 <g class="layer">
  <title>Layer 1</title>
  <path d="m11.94,0a12,12 0 0 0 -11.94,12a12,12 0 0 0 12,12a12,12 0 0 0 12,-12a12,12 0 0 0 -12,-12a12,12 0 0 0 -0.06,0zm4.97,7.22c0.1,0 0.32,0.03 0.46,0.14a0.51,0.51 0 0 1 0.17,0.33c0.02,0.09 0.04,0.31 0.02,0.47c-0.18,1.9 -0.96,6.5 -1.36,8.63c-0.17,0.9 -0.5,1.2 -0.82,1.23c-0.69,0.06 -1.22,-0.46 -1.9,-0.9c-1.05,-0.7 -1.65,-1.13 -2.68,-1.8c-1.18,-0.78 -0.41,-1.21 0.26,-1.91c0.18,-0.19 3.25,-2.98 3.31,-3.23c0.01,-0.04 0.01,-0.15 -0.06,-0.22s-0.17,-0.04 -0.25,-0.02c-0.1,0.02 -1.79,1.14 -5.06,3.35c-0.48,0.33 -0.91,0.49 -1.3,0.48c-0.43,-0.01 -1.25,-0.25 -1.86,-0.44c-0.76,-0.25 -1.35,-0.38 -1.3,-0.79c0.03,-0.22 0.32,-0.44 0.89,-0.67c3.5,-1.52 5.83,-2.53 7,-3.01c3.33,-1.39 4.02,-1.63 4.48,-1.64z" fill="#184fdb" id="svg_1"/>
 </g>
</svg>